<mxfile host="app.diagrams.net" modified="2023-05-22T12:36:47.538Z" agent="Mozilla/5.0 (Macintosh; Intel Mac OS X 10_15_7) AppleWebKit/537.36 (KHTML, like Gecko) Chrome/113.0.0.0 Safari/537.36" etag="bgU8CXEo-hu-FHkmlvZf" version="21.3.2" type="github">
  <diagram name="第 1 页" id="qhITd_Xg--TJa-QcaCBj">
    <mxGraphModel dx="596" dy="294" grid="1" gridSize="10" guides="1" tooltips="1" connect="1" arrows="1" fold="1" page="1" pageScale="1" pageWidth="827" pageHeight="1169" math="0" shadow="0">
      <root>
        <mxCell id="0" />
        <mxCell id="1" parent="0" />
        <mxCell id="XMfdTYcQhxkG6gX6pJ5N-2" value="Collection" style="rounded=0;whiteSpace=wrap;html=1;" parent="1" vertex="1">
          <mxGeometry x="1270" y="70" width="120" height="30" as="geometry" />
        </mxCell>
        <mxCell id="MnfCELMRRn-xuZtHxBhQ-4" style="edgeStyle=orthogonalEdgeStyle;rounded=0;orthogonalLoop=1;jettySize=auto;html=1;exitX=0.5;exitY=0;exitDx=0;exitDy=0;entryX=0.5;entryY=1;entryDx=0;entryDy=0;" parent="1" source="MnfCELMRRn-xuZtHxBhQ-1" target="XMfdTYcQhxkG6gX6pJ5N-2" edge="1">
          <mxGeometry relative="1" as="geometry" />
        </mxCell>
        <mxCell id="MnfCELMRRn-xuZtHxBhQ-1" value="Set" style="rounded=0;whiteSpace=wrap;html=1;" parent="1" vertex="1">
          <mxGeometry x="420" y="190" width="120" height="30" as="geometry" />
        </mxCell>
        <mxCell id="MnfCELMRRn-xuZtHxBhQ-12" style="edgeStyle=orthogonalEdgeStyle;rounded=0;orthogonalLoop=1;jettySize=auto;html=1;entryX=0.5;entryY=1;entryDx=0;entryDy=0;" parent="1" source="MnfCELMRRn-xuZtHxBhQ-2" target="XMfdTYcQhxkG6gX6pJ5N-2" edge="1">
          <mxGeometry relative="1" as="geometry" />
        </mxCell>
        <mxCell id="MnfCELMRRn-xuZtHxBhQ-2" value="List" style="rounded=0;whiteSpace=wrap;html=1;" parent="1" vertex="1">
          <mxGeometry x="1270" y="190" width="120" height="30" as="geometry" />
        </mxCell>
        <mxCell id="MnfCELMRRn-xuZtHxBhQ-6" style="edgeStyle=orthogonalEdgeStyle;rounded=0;orthogonalLoop=1;jettySize=auto;html=1;exitX=0.5;exitY=0;exitDx=0;exitDy=0;entryX=0.5;entryY=1;entryDx=0;entryDy=0;endArrow=block;endFill=1;" parent="1" source="MnfCELMRRn-xuZtHxBhQ-3" target="XMfdTYcQhxkG6gX6pJ5N-2" edge="1">
          <mxGeometry relative="1" as="geometry" />
        </mxCell>
        <mxCell id="MnfCELMRRn-xuZtHxBhQ-3" value="Queue" style="rounded=0;whiteSpace=wrap;html=1;" parent="1" vertex="1">
          <mxGeometry x="2100" y="190" width="120" height="30" as="geometry" />
        </mxCell>
        <mxCell id="MnfCELMRRn-xuZtHxBhQ-28" style="edgeStyle=orthogonalEdgeStyle;rounded=0;orthogonalLoop=1;jettySize=auto;html=1;entryX=0.5;entryY=1;entryDx=0;entryDy=0;endArrow=block;endFill=1;dashed=1;dashPattern=8 8;" parent="1" source="MnfCELMRRn-xuZtHxBhQ-7" target="MnfCELMRRn-xuZtHxBhQ-1" edge="1">
          <mxGeometry relative="1" as="geometry">
            <mxPoint x="480" y="230" as="targetPoint" />
          </mxGeometry>
        </mxCell>
        <mxCell id="MnfCELMRRn-xuZtHxBhQ-31" style="edgeStyle=orthogonalEdgeStyle;rounded=0;orthogonalLoop=1;jettySize=auto;html=1;exitX=0.75;exitY=0;exitDx=0;exitDy=0;entryX=0.25;entryY=1;entryDx=0;entryDy=0;endArrow=block;endFill=1;" parent="1" source="MnfCELMRRn-xuZtHxBhQ-7" target="MnfCELMRRn-xuZtHxBhQ-29" edge="1">
          <mxGeometry relative="1" as="geometry">
            <Array as="points">
              <mxPoint x="510" y="250" />
              <mxPoint x="1120" y="250" />
            </Array>
          </mxGeometry>
        </mxCell>
        <mxCell id="MnfCELMRRn-xuZtHxBhQ-7" value="AbstractSet&lt;br&gt;提供Set接口的默认实现方法,简化了Set接口的实现" style="rounded=0;whiteSpace=wrap;html=1;" parent="1" vertex="1">
          <mxGeometry x="420" y="410" width="120" height="60" as="geometry" />
        </mxCell>
        <mxCell id="MnfCELMRRn-xuZtHxBhQ-27" value="" style="edgeStyle=orthogonalEdgeStyle;rounded=0;orthogonalLoop=1;jettySize=auto;html=1;endArrow=block;endFill=1;" parent="1" source="MnfCELMRRn-xuZtHxBhQ-8" target="MnfCELMRRn-xuZtHxBhQ-7" edge="1">
          <mxGeometry relative="1" as="geometry" />
        </mxCell>
        <mxCell id="MnfCELMRRn-xuZtHxBhQ-8" value="HashSet" style="rounded=0;whiteSpace=wrap;html=1;" parent="1" vertex="1">
          <mxGeometry x="420" y="510" width="120" height="30" as="geometry" />
        </mxCell>
        <mxCell id="MnfCELMRRn-xuZtHxBhQ-17" style="edgeStyle=orthogonalEdgeStyle;rounded=0;orthogonalLoop=1;jettySize=auto;html=1;exitX=0.5;exitY=0;exitDx=0;exitDy=0;entryX=0;entryY=0.5;entryDx=0;entryDy=0;endArrow=block;endFill=1;" parent="1" source="MnfCELMRRn-xuZtHxBhQ-9" target="MnfCELMRRn-xuZtHxBhQ-7" edge="1">
          <mxGeometry relative="1" as="geometry" />
        </mxCell>
        <mxCell id="MnfCELMRRn-xuZtHxBhQ-9" value="EnumSet&lt;br&gt;主要用于存放enum类型的set" style="rounded=0;whiteSpace=wrap;html=1;" parent="1" vertex="1">
          <mxGeometry x="240" y="510" width="120" height="60" as="geometry" />
        </mxCell>
        <mxCell id="MnfCELMRRn-xuZtHxBhQ-19" style="edgeStyle=orthogonalEdgeStyle;rounded=0;orthogonalLoop=1;jettySize=auto;html=1;exitX=0.5;exitY=0;exitDx=0;exitDy=0;entryX=1;entryY=0.5;entryDx=0;entryDy=0;endArrow=block;endFill=1;" parent="1" source="MnfCELMRRn-xuZtHxBhQ-10" target="MnfCELMRRn-xuZtHxBhQ-7" edge="1">
          <mxGeometry relative="1" as="geometry" />
        </mxCell>
        <mxCell id="MnfCELMRRn-xuZtHxBhQ-26" style="edgeStyle=orthogonalEdgeStyle;rounded=0;orthogonalLoop=1;jettySize=auto;html=1;exitX=1;exitY=0.5;exitDx=0;exitDy=0;entryX=0.5;entryY=1;entryDx=0;entryDy=0;endArrow=block;endFill=1;dashed=1;dashPattern=8 8;" parent="1" source="MnfCELMRRn-xuZtHxBhQ-10" target="MnfCELMRRn-xuZtHxBhQ-24" edge="1">
          <mxGeometry relative="1" as="geometry" />
        </mxCell>
        <mxCell id="MnfCELMRRn-xuZtHxBhQ-10" value="TreeSet&lt;br&gt;有序集合,范围查找,快速查找,返回首/尾元素,正确判断集合相等性等功能" style="rounded=0;whiteSpace=wrap;html=1;" parent="1" vertex="1">
          <mxGeometry x="610" y="510" width="180" height="65" as="geometry" />
        </mxCell>
        <mxCell id="MnfCELMRRn-xuZtHxBhQ-16" value="" style="edgeStyle=orthogonalEdgeStyle;rounded=0;orthogonalLoop=1;jettySize=auto;html=1;endArrow=block;endFill=1;" parent="1" source="MnfCELMRRn-xuZtHxBhQ-11" target="MnfCELMRRn-xuZtHxBhQ-8" edge="1">
          <mxGeometry relative="1" as="geometry" />
        </mxCell>
        <mxCell id="MnfCELMRRn-xuZtHxBhQ-11" value="LinkedHashSet&lt;br&gt;有序的hashSet。可以实现LRU缓存功能" style="rounded=0;whiteSpace=wrap;html=1;" parent="1" vertex="1">
          <mxGeometry x="420" y="600" width="120" height="55" as="geometry" />
        </mxCell>
        <mxCell id="MnfCELMRRn-xuZtHxBhQ-15" style="edgeStyle=orthogonalEdgeStyle;rounded=0;orthogonalLoop=1;jettySize=auto;html=1;exitX=0.5;exitY=0;exitDx=0;exitDy=0;entryX=1;entryY=0.5;entryDx=0;entryDy=0;endArrow=block;endFill=1;" parent="1" source="MnfCELMRRn-xuZtHxBhQ-14" target="MnfCELMRRn-xuZtHxBhQ-1" edge="1">
          <mxGeometry relative="1" as="geometry" />
        </mxCell>
        <mxCell id="MnfCELMRRn-xuZtHxBhQ-14" value="SortedSet" style="rounded=0;whiteSpace=wrap;html=1;" parent="1" vertex="1">
          <mxGeometry x="800" y="350" width="120" height="30" as="geometry" />
        </mxCell>
        <mxCell id="MnfCELMRRn-xuZtHxBhQ-22" style="edgeStyle=orthogonalEdgeStyle;rounded=0;orthogonalLoop=1;jettySize=auto;html=1;exitX=0.5;exitY=0;exitDx=0;exitDy=0;entryX=0;entryY=0.5;entryDx=0;entryDy=0;endArrow=block;endFill=1;" parent="1" source="MnfCELMRRn-xuZtHxBhQ-20" target="MnfCELMRRn-xuZtHxBhQ-9" edge="1">
          <mxGeometry relative="1" as="geometry" />
        </mxCell>
        <mxCell id="MnfCELMRRn-xuZtHxBhQ-20" value="JumboEnumSet&lt;br&gt;元素数量较多，多余64个。比如颜色" style="rounded=0;whiteSpace=wrap;html=1;" parent="1" vertex="1">
          <mxGeometry x="90" y="600" width="120" height="60" as="geometry" />
        </mxCell>
        <mxCell id="MnfCELMRRn-xuZtHxBhQ-23" value="" style="edgeStyle=orthogonalEdgeStyle;rounded=0;orthogonalLoop=1;jettySize=auto;html=1;endArrow=block;endFill=1;" parent="1" source="MnfCELMRRn-xuZtHxBhQ-21" target="MnfCELMRRn-xuZtHxBhQ-9" edge="1">
          <mxGeometry relative="1" as="geometry" />
        </mxCell>
        <mxCell id="MnfCELMRRn-xuZtHxBhQ-21" value="RegularEnumSet&lt;br&gt;元素数量较少，小于64个，比如周" style="rounded=0;whiteSpace=wrap;html=1;" parent="1" vertex="1">
          <mxGeometry x="240" y="600" width="120" height="60" as="geometry" />
        </mxCell>
        <mxCell id="MnfCELMRRn-xuZtHxBhQ-25" style="edgeStyle=orthogonalEdgeStyle;rounded=0;orthogonalLoop=1;jettySize=auto;html=1;exitX=0.5;exitY=0;exitDx=0;exitDy=0;entryX=0.5;entryY=1;entryDx=0;entryDy=0;endArrow=block;endFill=1;" parent="1" source="MnfCELMRRn-xuZtHxBhQ-24" target="MnfCELMRRn-xuZtHxBhQ-14" edge="1">
          <mxGeometry relative="1" as="geometry" />
        </mxCell>
        <mxCell id="MnfCELMRRn-xuZtHxBhQ-24" value="NavigableSet&lt;br&gt;在SortedSet的基础上提供更加便捷的导航和访问集合元素的方法" style="rounded=0;whiteSpace=wrap;html=1;" parent="1" vertex="1">
          <mxGeometry x="795" y="420" width="130" height="60" as="geometry" />
        </mxCell>
        <mxCell id="MnfCELMRRn-xuZtHxBhQ-30" style="edgeStyle=orthogonalEdgeStyle;rounded=0;orthogonalLoop=1;jettySize=auto;html=1;exitX=0.5;exitY=0;exitDx=0;exitDy=0;entryX=0.2;entryY=1.117;entryDx=0;entryDy=0;entryPerimeter=0;dashed=1;dashPattern=8 8;endArrow=block;endFill=1;" parent="1" source="MnfCELMRRn-xuZtHxBhQ-29" target="XMfdTYcQhxkG6gX6pJ5N-2" edge="1">
          <mxGeometry relative="1" as="geometry">
            <Array as="points">
              <mxPoint x="1150" y="130" />
              <mxPoint x="1294" y="130" />
            </Array>
          </mxGeometry>
        </mxCell>
        <mxCell id="MnfCELMRRn-xuZtHxBhQ-29" value="AbstractCollection" style="rounded=0;whiteSpace=wrap;html=1;" parent="1" vertex="1">
          <mxGeometry x="1090" y="190" width="120" height="30" as="geometry" />
        </mxCell>
        <mxCell id="MnfCELMRRn-xuZtHxBhQ-33" style="edgeStyle=orthogonalEdgeStyle;rounded=0;orthogonalLoop=1;jettySize=auto;html=1;exitX=0.5;exitY=0;exitDx=0;exitDy=0;entryX=0.5;entryY=1;entryDx=0;entryDy=0;endArrow=block;endFill=1;dashed=1;dashPattern=8 8;" parent="1" source="MnfCELMRRn-xuZtHxBhQ-32" target="MnfCELMRRn-xuZtHxBhQ-2" edge="1">
          <mxGeometry relative="1" as="geometry" />
        </mxCell>
        <mxCell id="MnfCELMRRn-xuZtHxBhQ-34" style="edgeStyle=orthogonalEdgeStyle;rounded=0;orthogonalLoop=1;jettySize=auto;html=1;exitX=0;exitY=0.5;exitDx=0;exitDy=0;entryX=0.683;entryY=1.05;entryDx=0;entryDy=0;entryPerimeter=0;endArrow=block;endFill=1;" parent="1" source="MnfCELMRRn-xuZtHxBhQ-32" target="MnfCELMRRn-xuZtHxBhQ-29" edge="1">
          <mxGeometry relative="1" as="geometry">
            <mxPoint x="1170" y="230" as="targetPoint" />
            <Array as="points">
              <mxPoint x="1330" y="325" />
              <mxPoint x="1330" y="330" />
              <mxPoint x="1172" y="330" />
            </Array>
          </mxGeometry>
        </mxCell>
        <mxCell id="MnfCELMRRn-xuZtHxBhQ-32" value="AbstractList" style="rounded=0;whiteSpace=wrap;html=1;" parent="1" vertex="1">
          <mxGeometry x="1270" y="310" width="120" height="30" as="geometry" />
        </mxCell>
        <mxCell id="MnfCELMRRn-xuZtHxBhQ-42" style="edgeStyle=orthogonalEdgeStyle;rounded=0;orthogonalLoop=1;jettySize=auto;html=1;exitX=0.5;exitY=0;exitDx=0;exitDy=0;entryX=0.5;entryY=1;entryDx=0;entryDy=0;" parent="1" source="MnfCELMRRn-xuZtHxBhQ-35" target="MnfCELMRRn-xuZtHxBhQ-32" edge="1">
          <mxGeometry relative="1" as="geometry" />
        </mxCell>
        <mxCell id="MnfCELMRRn-xuZtHxBhQ-35" value="SubList&lt;br&gt;AbstractList的内部类，代表了父列表中的一段连续元素区间" style="rounded=0;whiteSpace=wrap;html=1;" parent="1" vertex="1">
          <mxGeometry x="1270" y="380" width="120" height="60" as="geometry" />
        </mxCell>
        <mxCell id="MnfCELMRRn-xuZtHxBhQ-39" style="edgeStyle=orthogonalEdgeStyle;rounded=0;orthogonalLoop=1;jettySize=auto;html=1;exitX=0.5;exitY=0;exitDx=0;exitDy=0;entryX=0.5;entryY=1;entryDx=0;entryDy=0;" parent="1" source="MnfCELMRRn-xuZtHxBhQ-36" target="MnfCELMRRn-xuZtHxBhQ-32" edge="1">
          <mxGeometry relative="1" as="geometry">
            <Array as="points">
              <mxPoint x="1190" y="370" />
              <mxPoint x="1330" y="370" />
            </Array>
          </mxGeometry>
        </mxCell>
        <mxCell id="MnfCELMRRn-xuZtHxBhQ-36" value="ArrayList&lt;br&gt;适用于高频的查找" style="rounded=0;whiteSpace=wrap;html=1;" parent="1" vertex="1">
          <mxGeometry x="1130" y="470" width="120" height="30" as="geometry" />
        </mxCell>
        <mxCell id="MnfCELMRRn-xuZtHxBhQ-41" style="edgeStyle=orthogonalEdgeStyle;rounded=0;orthogonalLoop=1;jettySize=auto;html=1;exitX=0.5;exitY=0;exitDx=0;exitDy=0;entryX=0.5;entryY=1;entryDx=0;entryDy=0;" parent="1" source="MnfCELMRRn-xuZtHxBhQ-37" target="MnfCELMRRn-xuZtHxBhQ-32" edge="1">
          <mxGeometry relative="1" as="geometry">
            <Array as="points">
              <mxPoint x="1665" y="370" />
              <mxPoint x="1330" y="370" />
            </Array>
          </mxGeometry>
        </mxCell>
        <mxCell id="MnfCELMRRn-xuZtHxBhQ-37" value="Vector&lt;br&gt;线程安全。常选择ArrayList+Collections&lt;br&gt;.synchronizedList(),而非Vector" style="rounded=0;whiteSpace=wrap;html=1;fillColor=#f8cecc;strokeColor=#b85450;" parent="1" vertex="1">
          <mxGeometry x="1600" y="440" width="130" height="80" as="geometry" />
        </mxCell>
        <mxCell id="MnfCELMRRn-xuZtHxBhQ-46" style="edgeStyle=orthogonalEdgeStyle;rounded=0;orthogonalLoop=1;jettySize=auto;html=1;exitX=0.5;exitY=0;exitDx=0;exitDy=0;entryX=1;entryY=0.5;entryDx=0;entryDy=0;" parent="1" source="MnfCELMRRn-xuZtHxBhQ-38" target="MnfCELMRRn-xuZtHxBhQ-32" edge="1">
          <mxGeometry relative="1" as="geometry" />
        </mxCell>
        <mxCell id="MnfCELMRRn-xuZtHxBhQ-38" value="AbstractSequentiaList" style="rounded=0;whiteSpace=wrap;html=1;" parent="1" vertex="1">
          <mxGeometry x="1430" y="390" width="140" height="30" as="geometry" />
        </mxCell>
        <mxCell id="MnfCELMRRn-xuZtHxBhQ-45" style="edgeStyle=orthogonalEdgeStyle;rounded=0;orthogonalLoop=1;jettySize=auto;html=1;exitX=0.5;exitY=0;exitDx=0;exitDy=0;entryX=0.5;entryY=1;entryDx=0;entryDy=0;" parent="1" source="MnfCELMRRn-xuZtHxBhQ-43" target="MnfCELMRRn-xuZtHxBhQ-38" edge="1">
          <mxGeometry relative="1" as="geometry" />
        </mxCell>
        <mxCell id="MnfCELMRRn-xuZtHxBhQ-52" style="edgeStyle=orthogonalEdgeStyle;rounded=0;orthogonalLoop=1;jettySize=auto;html=1;exitX=1;exitY=0.5;exitDx=0;exitDy=0;entryX=0.5;entryY=1;entryDx=0;entryDy=0;dashed=1;dashPattern=8 8;endArrow=block;endFill=1;" parent="1" source="MnfCELMRRn-xuZtHxBhQ-43" target="MnfCELMRRn-xuZtHxBhQ-47" edge="1">
          <mxGeometry relative="1" as="geometry">
            <Array as="points">
              <mxPoint x="1580" y="485" />
              <mxPoint x="1580" y="345" />
              <mxPoint x="1950" y="345" />
            </Array>
          </mxGeometry>
        </mxCell>
        <mxCell id="MnfCELMRRn-xuZtHxBhQ-43" value="LinkedList&lt;br&gt;适用于高频的写操作&lt;br&gt;实现了Deque，可以当作双端队列来使用" style="rounded=0;whiteSpace=wrap;html=1;" parent="1" vertex="1">
          <mxGeometry x="1440" y="470" width="120" height="70" as="geometry" />
        </mxCell>
        <mxCell id="MnfCELMRRn-xuZtHxBhQ-49" value="" style="edgeStyle=orthogonalEdgeStyle;rounded=0;orthogonalLoop=1;jettySize=auto;html=1;endArrow=block;endFill=1;" parent="1" source="MnfCELMRRn-xuZtHxBhQ-47" target="MnfCELMRRn-xuZtHxBhQ-3" edge="1">
          <mxGeometry relative="1" as="geometry" />
        </mxCell>
        <mxCell id="MnfCELMRRn-xuZtHxBhQ-47" value="Deque" style="rounded=0;whiteSpace=wrap;html=1;" parent="1" vertex="1">
          <mxGeometry x="1890" y="190" width="120" height="30" as="geometry" />
        </mxCell>
        <mxCell id="MnfCELMRRn-xuZtHxBhQ-51" value="" style="edgeStyle=orthogonalEdgeStyle;rounded=0;orthogonalLoop=1;jettySize=auto;html=1;endArrow=block;endFill=1;dashed=1;dashPattern=8 8;" parent="1" source="MnfCELMRRn-xuZtHxBhQ-50" target="MnfCELMRRn-xuZtHxBhQ-3" edge="1">
          <mxGeometry relative="1" as="geometry" />
        </mxCell>
        <mxCell id="MnfCELMRRn-xuZtHxBhQ-50" value="AbstractQueue" style="rounded=0;whiteSpace=wrap;html=1;" parent="1" vertex="1">
          <mxGeometry x="2100" y="310" width="120" height="30" as="geometry" />
        </mxCell>
        <mxCell id="BJBh6bCJ0BKxdYCHWpMT-2" style="edgeStyle=orthogonalEdgeStyle;rounded=0;orthogonalLoop=1;jettySize=auto;html=1;exitX=0.75;exitY=0;exitDx=0;exitDy=0;entryX=0.75;entryY=1;entryDx=0;entryDy=0;endArrow=block;endFill=1;dashed=1;dashPattern=8 8;" edge="1" parent="1" source="BJBh6bCJ0BKxdYCHWpMT-1" target="MnfCELMRRn-xuZtHxBhQ-47">
          <mxGeometry relative="1" as="geometry">
            <mxPoint x="1990" y="250" as="targetPoint" />
          </mxGeometry>
        </mxCell>
        <mxCell id="BJBh6bCJ0BKxdYCHWpMT-5" style="edgeStyle=orthogonalEdgeStyle;rounded=0;orthogonalLoop=1;jettySize=auto;html=1;exitX=0.25;exitY=0;exitDx=0;exitDy=0;entryX=0.892;entryY=1.083;entryDx=0;entryDy=0;entryPerimeter=0;endArrow=block;endFill=1;" edge="1" parent="1" source="BJBh6bCJ0BKxdYCHWpMT-1" target="MnfCELMRRn-xuZtHxBhQ-29">
          <mxGeometry relative="1" as="geometry">
            <Array as="points">
              <mxPoint x="1920" y="270" />
              <mxPoint x="1197" y="270" />
            </Array>
          </mxGeometry>
        </mxCell>
        <mxCell id="BJBh6bCJ0BKxdYCHWpMT-1" value="ArrayDeque&lt;br&gt;快速随机访问使用ArrayDeque&lt;br&gt;高速插入和删除用LinkedList" style="rounded=0;whiteSpace=wrap;html=1;" vertex="1" parent="1">
          <mxGeometry x="1890" y="370" width="120" height="80" as="geometry" />
        </mxCell>
        <mxCell id="BJBh6bCJ0BKxdYCHWpMT-4" style="edgeStyle=orthogonalEdgeStyle;rounded=0;orthogonalLoop=1;jettySize=auto;html=1;exitX=0.5;exitY=0;exitDx=0;exitDy=0;entryX=0.5;entryY=1;entryDx=0;entryDy=0;endArrow=block;endFill=1;" edge="1" parent="1" source="BJBh6bCJ0BKxdYCHWpMT-3" target="MnfCELMRRn-xuZtHxBhQ-50">
          <mxGeometry relative="1" as="geometry" />
        </mxCell>
        <mxCell id="BJBh6bCJ0BKxdYCHWpMT-3" value="PriorityQueue&lt;br&gt;可以以优先级顺序访问元素,适用于需要优先级排序的队列场景" style="rounded=0;whiteSpace=wrap;html=1;" vertex="1" parent="1">
          <mxGeometry x="2090" y="390" width="140" height="65" as="geometry" />
        </mxCell>
        <mxCell id="BJBh6bCJ0BKxdYCHWpMT-7" style="edgeStyle=orthogonalEdgeStyle;rounded=0;orthogonalLoop=1;jettySize=auto;html=1;exitX=0.5;exitY=0;exitDx=0;exitDy=0;entryX=1;entryY=0.5;entryDx=0;entryDy=0;endArrow=block;endFill=1;" edge="1" parent="1" source="BJBh6bCJ0BKxdYCHWpMT-6" target="MnfCELMRRn-xuZtHxBhQ-3">
          <mxGeometry relative="1" as="geometry" />
        </mxCell>
        <mxCell id="BJBh6bCJ0BKxdYCHWpMT-6" value="BlockingQueue&lt;br&gt;BlockingQueue继承于Queue,并添加阻塞方法,用来处理队列满和空的状态" style="rounded=0;whiteSpace=wrap;html=1;" vertex="1" parent="1">
          <mxGeometry x="2270" y="310" width="120" height="80" as="geometry" />
        </mxCell>
        <mxCell id="BJBh6bCJ0BKxdYCHWpMT-15" style="edgeStyle=orthogonalEdgeStyle;rounded=0;orthogonalLoop=1;jettySize=auto;html=1;exitX=0;exitY=0.5;exitDx=0;exitDy=0;entryX=1;entryY=0.5;entryDx=0;entryDy=0;" edge="1" parent="1" source="BJBh6bCJ0BKxdYCHWpMT-8" target="BJBh6bCJ0BKxdYCHWpMT-6">
          <mxGeometry relative="1" as="geometry" />
        </mxCell>
        <mxCell id="BJBh6bCJ0BKxdYCHWpMT-8" value="TransferQueue" style="rounded=0;whiteSpace=wrap;html=1;" vertex="1" parent="1">
          <mxGeometry x="2481" y="335" width="120" height="30" as="geometry" />
        </mxCell>
        <mxCell id="BJBh6bCJ0BKxdYCHWpMT-14" style="edgeStyle=orthogonalEdgeStyle;rounded=0;orthogonalLoop=1;jettySize=auto;html=1;exitX=0.5;exitY=0;exitDx=0;exitDy=0;entryX=0.75;entryY=0;entryDx=0;entryDy=0;endArrow=block;endFill=1;" edge="1" parent="1" source="BJBh6bCJ0BKxdYCHWpMT-9" target="BJBh6bCJ0BKxdYCHWpMT-6">
          <mxGeometry relative="1" as="geometry">
            <Array as="points">
              <mxPoint x="2835" y="270" />
              <mxPoint x="2360" y="270" />
            </Array>
          </mxGeometry>
        </mxCell>
        <mxCell id="BJBh6bCJ0BKxdYCHWpMT-9" value="BlockingDeque" style="rounded=0;whiteSpace=wrap;html=1;" vertex="1" parent="1">
          <mxGeometry x="2775" y="350" width="120" height="30" as="geometry" />
        </mxCell>
        <mxCell id="BJBh6bCJ0BKxdYCHWpMT-13" style="edgeStyle=orthogonalEdgeStyle;rounded=0;orthogonalLoop=1;jettySize=auto;html=1;exitX=0.5;exitY=0;exitDx=0;exitDy=0;entryX=0.5;entryY=1;entryDx=0;entryDy=0;dashed=1;dashPattern=8 8;endArrow=block;endFill=1;" edge="1" parent="1" source="BJBh6bCJ0BKxdYCHWpMT-11" target="BJBh6bCJ0BKxdYCHWpMT-9">
          <mxGeometry relative="1" as="geometry" />
        </mxCell>
        <mxCell id="BJBh6bCJ0BKxdYCHWpMT-11" value="LinkedBlockingDeque&lt;br&gt;同时具有阻塞队列和双端队列的特征,支持超时、中断、同步控制等特性" style="rounded=0;whiteSpace=wrap;html=1;" vertex="1" parent="1">
          <mxGeometry x="2730" y="422" width="210" height="68" as="geometry" />
        </mxCell>
        <mxCell id="BJBh6bCJ0BKxdYCHWpMT-17" style="edgeStyle=orthogonalEdgeStyle;rounded=0;orthogonalLoop=1;jettySize=auto;html=1;exitX=0.5;exitY=0;exitDx=0;exitDy=0;entryX=0.5;entryY=1;entryDx=0;entryDy=0;dashed=1;dashPattern=8 8;endArrow=block;endFill=1;" edge="1" parent="1" source="BJBh6bCJ0BKxdYCHWpMT-16" target="BJBh6bCJ0BKxdYCHWpMT-8">
          <mxGeometry relative="1" as="geometry" />
        </mxCell>
        <mxCell id="BJBh6bCJ0BKxdYCHWpMT-16" value="LinkedTransferQueue&lt;br&gt;主要适用于以下场景:&lt;span style=&quot;box-sizing: inherit; display: block; height: 8px; color: rgb(29, 28, 29); font-family: NotoSansSC, Slack-Lato, Slack-Fractions, appleLogo, sans-serif; font-size: 15px; font-variant-ligatures: common-ligatures; text-align: left; background-color: rgb(248, 248, 248);&quot; data-stringify-type=&quot;paragraph-break&quot; class=&quot;c-mrkdwn__br&quot; aria-label=&quot;&quot;&gt;&lt;/span&gt;&lt;span style=&quot;color: rgb(29, 28, 29); font-family: NotoSansSC, Slack-Lato, Slack-Fractions, appleLogo, sans-serif; font-size: 15px; font-variant-ligatures: common-ligatures; text-align: left; background-color: rgb(248, 248, 248);&quot;&gt;- 需要无界队列或链表实现的场景。&amp;nbsp;&lt;/span&gt;&lt;br style=&quot;box-sizing: inherit; color: rgb(29, 28, 29); font-family: NotoSansSC, Slack-Lato, Slack-Fractions, appleLogo, sans-serif; font-size: 15px; font-variant-ligatures: common-ligatures; text-align: left; background-color: rgb(248, 248, 248);&quot;&gt;&lt;span style=&quot;color: rgb(29, 28, 29); font-family: NotoSansSC, Slack-Lato, Slack-Fractions, appleLogo, sans-serif; font-size: 15px; font-variant-ligatures: common-ligatures; text-align: left; background-color: rgb(248, 248, 248);&quot;&gt;- 需要支持生产者和消费者“线程内部传输”的场景。&amp;nbsp;&lt;/span&gt;&lt;br style=&quot;box-sizing: inherit; color: rgb(29, 28, 29); font-family: NotoSansSC, Slack-Lato, Slack-Fractions, appleLogo, sans-serif; font-size: 15px; font-variant-ligatures: common-ligatures; text-align: left; background-color: rgb(248, 248, 248);&quot;&gt;&lt;span style=&quot;color: rgb(29, 28, 29); font-family: NotoSansSC, Slack-Lato, Slack-Fractions, appleLogo, sans-serif; font-size: 15px; font-variant-ligatures: common-ligatures; text-align: left; background-color: rgb(248, 248, 248);&quot;&gt;- 需要公平的锁定策略和中断支持的阻塞队列场景。&lt;/span&gt;&lt;br style=&quot;box-sizing: inherit; color: rgb(29, 28, 29); font-family: NotoSansSC, Slack-Lato, Slack-Fractions, appleLogo, sans-serif; font-size: 15px; font-variant-ligatures: common-ligatures; text-align: left; background-color: rgb(248, 248, 248);&quot;&gt;&lt;span style=&quot;color: rgb(29, 28, 29); font-family: NotoSansSC, Slack-Lato, Slack-Fractions, appleLogo, sans-serif; font-size: 15px; font-variant-ligatures: common-ligatures; text-align: left; background-color: rgb(248, 248, 248);&quot;&gt;- 需要支持超时阻塞操作的场景。&lt;/span&gt;" style="rounded=0;whiteSpace=wrap;html=1;" vertex="1" parent="1">
          <mxGeometry x="2421.5" y="425" width="239" height="200" as="geometry" />
        </mxCell>
      </root>
    </mxGraphModel>
  </diagram>
</mxfile>
